# xmcd CD database file
#
# Track frame offsets:
#	150
#	20769
#	40417
#	60370
#	84162
#	101975
#	124032
#	146395
#	170427
#	191377
#	213732
#	230497
#
# Disc length: 3352 seconds
#
# Revision: 15
# Processed by: cddbd v1.5.2PL0 Copyright (c) Steve Scherf et al.
# Submitted via: CDex 1.70beta3
#
DISCID=a20d160c
DTITLE=ポルノグラフティ - foo?
DYEAR=2001
DGENRE=JPop
TTITLE0=INNERVISIONS
TTITLE1=グァバジュース
TTITLE2=サウタージ "D" tour style
TTITLE3=愛なき…
TTITLE4=オレ、天使
TTITLE5=サボテン
TTITLE6=Name is man ～君の味方～
TTITLE7=デッサン#2 春光
TTITLE8=ミュージック・アワー Ver.164
TTITLE9=空想科学少年
TTITLE10=Report 21
TTITLE11=夜明けまえには
EXTD=YEAR: 2001
EXTT0=INNERVISIONS
EXTT1=???????
EXTT2=????? ?D? tour style
EXTT3=??????
EXTT4=?????
EXTT5=????
EXTT6=Name is man ??????
EXTT7=?????2 ??
EXTT8=?????????? Ver?164
EXTT9=??????
EXTT10=Report 21
EXTT11=???????
PLAYORDER=
